<?xml version="1.0" encoding="UTF-8"?>
<svg width="24px" height="24px" viewBox="0 0 24 24" stroke-width="1.5" stroke="currentColor" fill="none" xmlns="http://www.w3.org/2000/svg">
<path d="M7 22V11M2 13V20C2 21.1046 2.89543 22 4 22H17.4262C18.907 22 20.1662 20.9197 20.3914 19.4562L21.4683 12.4562C21.7479 10.6389 20.3418 9 18.5032 9H15C14.4477 9 14 8.55228 14 8V4.46584C14 3.10399 12.896 2 11.5342 2C11.2093 2 10.915 2.1913 10.7831 2.48812L7.26394 10.4881C7.10344 10.8443 6.74532 11.0718 6.35157 11.0068L4.17611 10.7271C2.99384 10.5716 2 11.4745 2 12.6688V13" stroke-linecap="round" stroke-linejoin="round"/>
</svg>
